<svg width="77" height="77" viewBox="0 0 77 77" fill="none" xmlns="http://www.w3.org/2000/svg">
<path fill-rule="evenodd" clip-rule="evenodd" d="M17.3251 17.325H59.6751V15.4H17.3251V17.325Z" fill="#222222"/>
<path fill-rule="evenodd" clip-rule="evenodd" d="M17.3251 61.6H59.6751V59.675H17.3251V61.6Z" fill="#222222"/>
<path fill-rule="evenodd" clip-rule="evenodd" d="M22.1375 9.62501C20.0143 9.62501 18.2875 11.3517 18.2875 13.475V63.525C18.2875 65.6483 20.0143 67.375 22.1375 67.375H54.8625C56.9858 67.375 58.7125 65.6483 58.7125 63.525V13.475C58.7125 11.3517 56.9858 9.62501 54.8625 9.62501H22.1375ZM54.8625 69.3H22.1375C18.9526 69.3 16.3625 66.7099 16.3625 63.525V13.475C16.3625 10.2901 18.9526 7.70001 22.1375 7.70001H54.8625C58.0475 7.70001 60.6376 10.2901 60.6376 13.475V63.525C60.6376 66.7099 58.0475 69.3 54.8625 69.3Z" fill="#222222"/>
<path fill-rule="evenodd" clip-rule="evenodd" d="M32.7251 13.475H44.2751V11.55H32.7251V13.475Z" fill="#222222"/>
<path fill-rule="evenodd" clip-rule="evenodd" d="M36.5751 65.45H40.4251V63.525H36.5751V65.45Z" fill="#222222"/>
</svg>
