<svg width="70" height="96" viewBox="2 0 66 97" fill="none" xmlns="http://www.w3.org/2000/svg">
<path fill-rule="evenodd" clip-rule="evenodd" d="M2 15H68V12H2V15Z" fill="#A5ADB1"/>
<path fill-rule="evenodd" clip-rule="evenodd" d="M2 84H68V81H2V84Z" fill="#A5ADB1"/>
<path fill-rule="evenodd" clip-rule="evenodd" d="M9.5 3C6.191 3 3.5 5.691 3.5 9V87C3.5 90.309 6.191 93 9.5 93H60.5C63.809 93 66.5 90.309 66.5 87V9C66.5 5.691 63.809 3 60.5 3H9.5ZM60.5 96H9.5C4.5365 96 0.5 91.9635 0.5 87V9C0.5 4.0365 4.5365 0 9.5 0H60.5C65.4635 0 69.5 4.0365 69.5 9V87C69.5 91.9635 65.4635 96 60.5 96Z" fill="#A5ADB1"/>
<path fill-rule="evenodd" clip-rule="evenodd" d="M26 9H44V6H26V9Z" fill="#A5ADB1"/>
<path fill-rule="evenodd" clip-rule="evenodd" d="M32 90H38V87H32V90Z" fill="#A5ADB1"/>
<path fill-rule="evenodd" clip-rule="evenodd" d="M9.5 75H60.5V21H9.5V75ZM62 78H8C7.1705 78 6.5 77.3295 6.5 76.5V19.5C6.5 18.6705 7.1705 18 8 18H62C62.8295 18 63.5 18.6705 63.5 19.5V76.5C63.5 77.3295 62.8295 78 62 78Z" fill="#A5ADB1"/>
<path fill-rule="evenodd" clip-rule="evenodd" d="M15.5 30H18.5V27H15.5V30Z" fill="#E86717"/>
<path fill-rule="evenodd" clip-rule="evenodd" d="M24.5 30H27.5V27H24.5V30Z" fill="#E86717"/>
<path fill-rule="evenodd" clip-rule="evenodd" d="M33.5 30H36.5V27H33.5V30Z" fill="#E86717"/>
<path fill-rule="evenodd" clip-rule="evenodd" d="M42.5 30H45.5V27H42.5V30Z" fill="#E86717"/>
<path fill-rule="evenodd" clip-rule="evenodd" d="M51.5 30H54.5V27H51.5V30Z" fill="#E86717"/>
<path fill-rule="evenodd" clip-rule="evenodd" d="M15.5 39H18.5V36H15.5V39Z" fill="#E86717"/>
<path fill-rule="evenodd" clip-rule="evenodd" d="M24.5 39H27.5V36H24.5V39Z" fill="#E86717"/>
<path fill-rule="evenodd" clip-rule="evenodd" d="M33.5 39H36.5V36H33.5V39Z" fill="#E86717"/>
<path fill-rule="evenodd" clip-rule="evenodd" d="M42.5 39H45.5V36H42.5V39Z" fill="#E86717"/>
<path fill-rule="evenodd" clip-rule="evenodd" d="M51.5 39H54.5V36H51.5V39Z" fill="#E86717"/>
<path fill-rule="evenodd" clip-rule="evenodd" d="M15.5 48H18.5V45H15.5V48Z" fill="#E86717"/>
<path fill-rule="evenodd" clip-rule="evenodd" d="M24.5 48H27.5V45H24.5V48Z" fill="#E86717"/>
<path fill-rule="evenodd" clip-rule="evenodd" d="M33.5 48H36.5V45H33.5V48Z" fill="#E86717"/>
<path fill-rule="evenodd" clip-rule="evenodd" d="M42.5 48H45.5V45H42.5V48Z" fill="#E86717"/>
<path fill-rule="evenodd" clip-rule="evenodd" d="M51.5 48H54.5V45H51.5V48Z" fill="#E86717"/>
<path fill-rule="evenodd" clip-rule="evenodd" d="M15.5 57H18.5V54H15.5V57Z" fill="#E86717"/>
<path fill-rule="evenodd" clip-rule="evenodd" d="M24.5 57H27.5V54H24.5V57Z" fill="#E86717"/>
<path fill-rule="evenodd" clip-rule="evenodd" d="M33.5 57H36.5V54H33.5V57Z" fill="#E86717"/>
<path fill-rule="evenodd" clip-rule="evenodd" d="M15.5 69H18.5V66H15.5V69Z" fill="#E86717"/>
<path fill-rule="evenodd" clip-rule="evenodd" d="M24.5 69H27.5V66H24.5V69Z" fill="#E86717"/>
<path fill-rule="evenodd" clip-rule="evenodd" d="M33.5 69H36.5V66H33.5V69Z" fill="#E86717"/>
<path fill-rule="evenodd" clip-rule="evenodd" d="M42.5 69H45.5V66H42.5V69Z" fill="#E86717"/>
<path fill-rule="evenodd" clip-rule="evenodd" d="M51.5 69H54.5V66H51.5V69Z" fill="#E86717"/>
</svg>
